<svg xmlns="http://www.w3.org/2000/svg" width="34" height="33"><defs><linearGradient id="a" x1="76.499%" x2="23.508%" y1="92.403%" y2="7.598%"><stop offset="0%" stop-color="#E73E11"/><stop offset="39.72%" stop-color="#EB6209"/><stop offset="100%" stop-color="#F59E00"/></linearGradient><linearGradient id="b" x1="89.786%" x2="14.587%" y1="89.741%" y2="14.576%"><stop offset="0%" stop-color="#E73E11"/><stop offset="39.72%" stop-color="#EB6209"/><stop offset="100%" stop-color="#F59E00"/></linearGradient></defs><g fill="none"><path fill="url(#a)" d="M17.168 32.835C8.1 32.835.72 25.478.72 16.437.72 7.397 8.1.04 17.17.04c9.068 0 16.448 7.357 16.448 16.397.01 9.04-7.38 16.398-16.449 16.398zm0-31.131c-8.144 0-14.78 6.605-14.78 14.733 0 8.119 6.626 14.734 14.78 14.734 8.144 0 14.78-6.605 14.78-14.734 0-8.118-6.626-14.733-14.78-14.733z"/><path fill="url(#b)" d="M21.602 17.95a2.056 2.056 0 00-2.906 0 2.04 2.04 0 000 2.897l4.696 4.681a2.044 2.044 0 002.896 0 2.04 2.04 0 000-2.897l-4.686-4.68zM17.138 4.892c-6.364 0-11.552 5.162-11.552 11.516 0 6.345 5.178 11.516 11.552 11.516.513 0 1.036-.03 1.548-.1a2.048 2.048 0 10-.553-4.059c-.331.04-.663.07-.995.07-4.102 0-7.44-3.327-7.44-7.417 0-4.089 3.338-7.417 7.44-7.417s7.44 3.328 7.44 7.417c0 .28-.02.582-.05.862a2.043 2.043 0 001.8 2.265A2.046 2.046 0 0028.6 17.75c.05-.45.08-.902.08-1.343.01-6.354-5.178-11.516-11.542-11.516z"/></g></svg>