<?xml version="1.0" encoding="utf-8"?>
<!-- Generator: Adobe Illustrator 25.4.1, SVG Export Plug-In . SVG Version: 6.00 Build 0)  -->
<svg version="1.1" id="Layer_1" xmlns="http://www.w3.org/2000/svg" xmlns:xlink="http://www.w3.org/1999/xlink" x="0px" y="0px"
	 viewBox="0 0 34 33" style="enable-background:new 0 0 34 33;" xml:space="preserve">
<style type="text/css">
	.st0{fill:url(#SVGID_1_);}
	.st1{fill:url(#SVGID_00000060750330384479584000000010021295280522336653_);}
</style>
<g>
	
		<linearGradient id="SVGID_1_" gradientUnits="userSpaceOnUse" x1="-912.6011" y1="540.126" x2="-913.131" y2="540.9741" gradientTransform="matrix(32.898 0 0 -32.795 30048.6426 17743.8535)">
		<stop  offset="2.770450e-07" style="stop-color:#E73E11"/>
		<stop  offset="0.3972" style="stop-color:#EB6209"/>
		<stop  offset="1" style="stop-color:#F59E00"/>
	</linearGradient>
	<path class="st0" d="M17.2,32.9c-9.1,0-16.4-7.4-16.4-16.4c0-9,7.4-16.4,16.5-16.4c9.1,0,16.4,7.4,16.4,16.4
		C33.6,25.6,26.2,32.9,17.2,32.9L17.2,32.9z M17.2,1.8C9,1.8,2.4,8.4,2.4,16.5c0,8.1,6.6,14.7,14.8,14.7c8.1,0,14.8-6.6,14.8-14.7
		C31.9,8.4,25.3,1.8,17.2,1.8z M0,0.1"/>
</g>
<linearGradient id="SVGID_00000017516698957881353700000001903060959480859303_" gradientUnits="userSpaceOnUse" x1="23.9075" y1="27.5164" x2="10.7031" y2="6.4507">
	<stop  offset="0" style="stop-color:#E8460F"/>
	<stop  offset="0.3972" style="stop-color:#EF7207"/>
	<stop  offset="1" style="stop-color:#F59D00"/>
</linearGradient>
<path style="fill:url(#SVGID_00000017516698957881353700000001903060959480859303_);" d="M28.8,17.9c-0.1,1.2-1.2,2-2.4,1.8
	c-1.1-0.1-2-1.2-1.8-2.3c0.1-0.7,0.1-1.3,0-2c0,0,0-0.1,0-0.1c-0.1-0.7-0.3-1.3-0.6-2c-0.5-1-1.2-1.9-2.1-2.7c0,0-0.1-0.1-0.1-0.1
	c-0.4-0.3-0.9-0.6-1.4-0.9c-2.1-1-4.3-1.1-6.4-0.2c-0.1,0-0.1,0-0.2,0.1c-0.5,0.2-0.9,0.5-1.3,0.8c-0.3,0.3-0.7,0.5-1,0.8
	c-0.4,0.5-0.8,1-1.2,1.5c-0.1,0.2-0.2,0.4-0.3,0.6c-0.2,0.4-0.4,0.9-0.5,1.3C9.1,16.9,9.5,19,10.8,21c0,0,0.1,0.1,0.1,0.1
	c0.2,0.2,0.4,0.5,0.6,0.7c0.8,0.9,1.8,1.5,3,1.9c0.6,0.2,1.1,0.3,1.7,0.4c0.4,0,0.9,0.1,1.3,0c0.2,0,0.4,0,0.6-0.1
	c1.2-0.1,2.2,0.7,2.3,1.8c0.1,1.1-0.7,2.2-1.8,2.3c-2,0.3-3.9,0.1-5.8-0.7c0,0-0.1,0-0.1,0c-0.4-0.1-0.8-0.3-1.2-0.5
	c-1.1-0.6-2.1-1.3-3-2.2c-0.2-0.2-0.5-0.5-0.6-0.7c-0.3-0.3-0.6-0.7-0.8-1.1c-0.9-1.5-1.5-3-1.8-4.8c0,0,0-0.1,0-0.1
	c-0.1-0.4-0.1-0.8-0.1-1.2c-0.1-1.9,0.3-3.7,1.1-5.4C7.4,9.1,9.2,7.2,11.5,6c1.8-1,3.8-1.4,5.9-1.3c0.4,0,0.8,0,1.1,0.1
	c0.4,0,0.8,0.1,1.1,0.2c1.9,0.4,3.5,1.3,5,2.5c0,0,0.1,0.1,0.1,0.1c0.4,0.3,0.8,0.7,1.2,1.1c0.8,0.9,1.5,1.9,1.9,3.1
	c0,0,0,0.1,0.1,0.1c0.2,0.5,0.4,1,0.5,1.6C28.9,14.9,29,16.4,28.8,17.9z M25.7,22.2c-0.3-0.3-0.7-0.7-1-1c0,0,0,0,0,0
	c-1-1-2.1-2.1-3.1-3.1c-1.1-1-2.9-0.6-3.4,0.8c-0.3,0.9-0.2,1.7,0.5,2.3c1,1,2,2,3,3c0,0,0.1,0.1,0.1,0.1c0,0,0,0,0,0
	c0.6,0.6,1.2,1.2,1.8,1.7c0.4,0.4,0.8,0.6,1.4,0.6c0.9,0,1.7-0.5,2-1.3c0.3-0.8,0.2-1.7-0.5-2.3C26.2,22.7,25.9,22.4,25.7,22.2z"/>
</svg>
